<svg xmlns="http://www.w3.org/2000/svg" width="1280" height="220" viewBox="0 0 1280 220" role="img" aria-labelledby="title desc">
  <title id="title">Code generation diagram</title>
  <desc id="desc">Python contract files flow into the code generator, then to generated Java interfaces and runtime binding.</desc>
  <defs>
    <style>
      .bg { fill: #f7f4ee; }
      .a { fill: #fff8e7; stroke: #1f2937; stroke-width: 2; }
      .b { fill: #dceefb; stroke: #1f2937; stroke-width: 2; }
      .c { fill: #e9f5db; stroke: #1f2937; stroke-width: 2; }
      .d { fill: #fde2e4; stroke: #1f2937; stroke-width: 2; }
      .txt { font-family: JetBrains Mono, monospace; font-size: 17px; fill: #111827; }
      .sub { font-family: JetBrains Mono, monospace; font-size: 13px; fill: #374151; }
      .arrow { stroke: #1f2937; stroke-width: 2.2; fill: none; marker-end: url(#m); }
    </style>
    <marker id="m" markerWidth="8" markerHeight="8" refX="6.5" refY="4" orient="auto">
      <path d="M0,0 L8,4 L0,8 z" fill="#1f2937"/>
    </marker>
  </defs>
  <rect class="bg" x="0" y="0" width="1280" height="220" rx="16"/>
  <rect class="a" x="28" y="50" width="270" height="120" rx="18"/>
  <rect class="b" x="344" y="50" width="270" height="120" rx="18"/>
  <rect class="c" x="660" y="50" width="270" height="120" rx="18"/>
  <rect class="d" x="976" y="50" width="276" height="120" rx="18"/>
  <text class="txt" x="163" y="93" text-anchor="middle">Python contracts</text>
  <text class="sub" x="163" y="119" text-anchor="middle">scripts and export</text>
  <text class="sub" x="163" y="139" text-anchor="middle">definitions</text>
  <text class="txt" x="479" y="93" text-anchor="middle">polyglot-codegen</text>
  <text class="sub" x="479" y="119" text-anchor="middle">parser + contract model</text>
  <text class="txt" x="795" y="93" text-anchor="middle">Generated interfaces</text>
  <text class="sub" x="795" y="119" text-anchor="middle">Java source output</text>
  <text class="txt" x="1114" y="93" text-anchor="middle">Runtime adapter</text>
  <text class="sub" x="1114" y="119" text-anchor="middle">bind(...) at runtime</text>
  <path class="arrow" d="M298 110 H334"/>
  <path class="arrow" d="M614 110 H650"/>
  <path class="arrow" d="M930 110 H966"/>
</svg>
